<?xml version="1.0" encoding="UTF-8"?>
<svg width="20px" height="20px" viewBox="0 0 20 20" version="1.1" xmlns="http://www.w3.org/2000/svg" xmlns:xlink="http://www.w3.org/1999/xlink">
    <title>账号管理</title>
    <g id="页面-1" stroke="none" stroke-width="1" fill="none" fill-rule="evenodd">
        <g id="商品管理菜单-展开" transform="translate(-22.000000, -806.000000)">
            <g id="账号管理" transform="translate(22.000000, 806.000000)">
                <rect id="矩形" fill="#D8D8D8" opacity="0" x="0" y="0" width="20" height="20"></rect>
                <g id="账号管理-copy" transform="translate(3.000000, 3.000000)" fill="#FFFFFF" fill-rule="nonzero">
                    <path d="M5.64552846,7.52451071 C3.0699187,7.52451071 0.995121951,9.61538085 0.995121951,12.2109438 L0.0845528455,12.2109438 C0.0845528455,9.7857966 1.5804878,7.69492646 3.73333333,6.9411645 C2.65365854,6.26605596 1.90569106,5.09936353 1.90569106,3.76225536 C1.90569106,1.67138522 3.56422764,0 5.63902439,0 C7.71382114,0 9.37235772,1.67138522 9.37235772,3.76225536 C9.37235772,5.85312549 7.7203252,7.52451071 5.64552846,7.52451071 Z M5.64552846,0.917623258 C4.07154472,0.917623258 2.90731707,2.16952356 2.90731707,3.76225536 C2.90731707,5.35498715 4.07154472,6.60688746 5.7300813,6.60688746 C7.30406504,6.60688746 8.46829268,5.35498715 8.46829268,3.76225536 C8.38373984,2.16952356 7.2195122,0.917623258 5.64552846,0.917623258 Z" id="形状"></path>
                    <path d="M0.500813008,12.6238742 C0.74796748,12.6238742 1.00162602,12.4534585 1.00162602,12.1191815 C1.00162602,11.8701123 0.832520325,11.6144887 0.500813008,11.6144887 C0.253658537,11.6144887 0,11.7849044 0,12.1191815 C0,12.460013 0.247154472,12.6238742 0.500813008,12.6238742 Z M9.13170732,9.9496579 C9.13170732,9.61538085 9.37886179,9.36631168 9.71056911,9.36631168 C10.0422764,9.36631168 10.2894309,9.61538085 10.2894309,9.9496579 C10.2894309,10.2839349 10.0422764,10.5330041 9.71056911,10.5330041 C9.46341463,10.5330041 9.13170732,10.2839349 9.13170732,9.9496579 Z M8.46178862,9.9496579 C8.46178862,10.618212 9.04065041,11.2015582 9.70406504,11.2015582 C10.3674797,11.2015582 10.9463415,10.618212 10.9463415,9.9496579 C10.9463415,9.28110381 10.3674797,8.69775759 9.70406504,8.69775759 C9.04065041,8.69775759 8.46178862,9.19589593 8.46178862,9.9496579 Z M11.4536585,10.618212 C11.1219512,10.952489 11.0373984,11.4571818 11.2065041,11.8701123 L10.7056911,12.1191815 C10.4585366,11.8701123 10.1268293,11.6996965 9.79512195,11.6996965 C9.46341463,11.6996965 9.04715447,11.8701123 8.88455285,12.1191815 L8.38373984,11.8701123 C8.55284553,11.4506274 8.38373984,10.952489 8.13658537,10.618212 C7.96747967,10.4477962 7.7203252,10.2839349 7.47317073,10.1987271 L7.47317073,9.69403427 C7.7203252,9.6088264 7.97398374,9.52361853 8.13658537,9.27454936 C8.46829268,8.94027231 8.55284553,8.43557952 8.38373984,8.02264905 L8.88455285,7.77357988 C9.05365854,8.02264905 9.38536585,8.1930648 9.71707317,8.1930648 C10.0487805,8.1930648 10.4650407,8.02264905 10.6276423,7.77357988 L11.1284553,8.02264905 C10.9593496,8.44213397 11.1284553,8.94027231 11.3756098,9.27454936 C11.5447154,9.4449651 11.7918699,9.6088264 12.0390244,9.69403427 L12.0390244,10.1987271 C11.8699187,10.2839349 11.6162602,10.3691428 11.4536585,10.618212 Z M12.695935,9.19589593 C12.4487805,9.19589593 12.195122,9.02548019 12.0325203,8.86161889 C11.7853659,8.52734185 11.700813,8.10785693 11.8634146,7.77357988 C11.9479675,7.68837201 11.8634146,7.52451071 11.7788618,7.52451071 C11.4471545,7.27544154 11.1154472,7.1050258 10.7837398,6.9411645 C10.699187,6.9411645 10.5365854,6.9411645 10.5365854,7.02637237 C10.3674797,7.27544154 10.0357724,7.44585729 9.70406504,7.44585729 C9.37235772,7.44585729 9.04065041,7.27544154 8.87154472,7.02637237 C8.78699187,6.9411645 8.70243902,6.85595663 8.62439024,6.9411645 C8.29268293,7.11158025 7.96097561,7.27544154 7.62926829,7.52451071 C7.54471545,7.52451071 7.54471545,7.60971859 7.54471545,7.69492646 C7.79186992,8.19961925 7.54471545,8.78296547 7.04390244,9.03203464 C6.95934959,9.11724251 6.87479675,9.11724251 6.71219512,9.11724251 C6.62764228,9.11724251 6.54308943,9.20245039 6.46504065,9.28765826 C6.3804878,9.6219353 6.3804878,10.0414202 6.46504065,10.3756973 C6.5495935,10.6247664 6.63414634,10.7099743 6.71219512,10.7099743 C7.21300813,10.7951822 7.62276423,11.2146671 7.62276423,11.7128054 C7.62276423,11.8832212 7.62276423,11.9618746 7.53821138,12.1322904 C7.45365854,12.2174982 7.53821138,12.3813595 7.62276423,12.3813595 C7.95447154,12.6304287 8.20162602,12.8008444 8.61788618,12.9647057 C8.70243902,12.9647057 8.86504065,12.9647057 8.86504065,12.8794979 C9.03414634,12.6304287 9.36585366,12.460013 9.69756098,12.460013 C10.0292683,12.460013 10.3609756,12.6304287 10.5300813,12.8794979 C10.6146341,12.9647057 10.699187,13.0499136 10.7772358,12.9647057 C11.1089431,12.79429 11.4406504,12.6304287 11.7723577,12.3813595 C11.8569106,12.2961517 11.8569106,12.2109438 11.8569106,12.1322904 C11.6878049,11.7980133 11.7723577,11.2933205 12.0260163,11.0442514 C12.195122,10.8738356 12.4422764,10.7099743 12.6894309,10.7099743 C12.7739837,10.7099743 12.8585366,10.6247664 12.9365854,10.5395586 C13.0211382,10.2052815 13.0211382,9.7857966 12.9365854,9.45151956 C12.9430894,9.28110381 12.8650407,9.19589593 12.695935,9.19589593 L12.695935,9.19589593 Z" id="形状"></path>
                </g>
            </g>
        </g>
    </g>
</svg>